<?xml version="1.0" standalone="no"?><!DOCTYPE svg PUBLIC "-//W3C//DTD SVG 1.1//EN" "http://www.w3.org/Graphics/SVG/1.1/DTD/svg11.dtd"><svg class="icon" width="200px" height="200.00px" viewBox="0 0 1024 1024" version="1.1" xmlns="http://www.w3.org/2000/svg"><path d="M512 128a384 384 0 0 1 354.048 532.949333 42.666667 42.666667 0 0 1-78.677333-33.109333 298.666667 298.666667 0 1 0-141.184 151.04 42.666667 42.666667 0 1 1 38.4 76.202667A384 384 0 1 1 512 128z" fill="#1296db" /><path d="M512 384a128 128 0 1 0 0 256 128 128 0 0 0 0-256z m0 85.333333a42.666667 42.666667 0 1 1 0 85.333334 42.666667 42.666667 0 0 1 0-85.333334z" fill="#1296db" /><path d="M725.333333 469.333333m42.666667 0l170.666667 0q42.666667 0 42.666666 42.666667l0 0q0 42.666667-42.666666 42.666667l-170.666667 0q-42.666667 0-42.666667-42.666667l0 0q0-42.666667 42.666667-42.666667Z" fill="#1296db" /><path d="M42.666667 469.333333m42.666666 0l170.666667 0q42.666667 0 42.666667 42.666667l0 0q0 42.666667-42.666667 42.666667l-170.666667 0q-42.666667 0-42.666666-42.666667l0 0q0-42.666667 42.666666-42.666667Z" fill="#1296db" /><path d="M469.333333 981.333333m0-42.666666l0-170.666667q0-42.666667 42.666667-42.666667l0 0q42.666667 0 42.666667 42.666667l0 170.666667q0 42.666667-42.666667 42.666666l0 0q-42.666667 0-42.666667-42.666666Z" fill="#1296db" /><path d="M469.333333 298.666667m0-42.666667l0-170.666667q0-42.666667 42.666667-42.666666l0 0q42.666667 0 42.666667 42.666666l0 170.666667q0 42.666667-42.666667 42.666667l0 0q-42.666667 0-42.666667-42.666667Z" fill="#1296db" /></svg>